<svg width="28" height="28" viewBox="0 0 28 28" fill="none" xmlns="http://www.w3.org/2000/svg">
<path d="M24.4602 0.875L17.9104 4.26562L11.8401 1.64062L3.53981 2.1875L0.875 25.4844L9.45656 24.7551L18.9814 27.125L27.125 24.1719L24.4602 0.875ZM23.7352 2.23519L26.1774 23.5848L19.1494 26.1332L19.1104 25.3133L25.3103 22.9727L23.1919 3.46325L18.1847 5.838L18.1506 5.12663L18.3129 5.04306L23.7352 2.23519ZM18.6441 15.5089C18.7412 15.3024 18.8366 15.0124 18.8821 14.6055C18.8821 14.6055 19.3642 14.6291 19.9574 15.9219C19.9574 15.9219 20.2164 15.8961 20.0874 15.0522C20.0874 15.0522 21.0136 14.679 20.5139 13.0379C20.5139 13.0379 21.2909 14.1081 21.0328 12.7168C21.0328 12.7168 21.8851 11.6721 20.867 10.9773C20.867 10.9773 20.902 10.2069 21.5141 10.3057C21.5141 10.3057 22.1257 8.715 21.8308 10.6037C21.8308 10.6037 21.8483 10.9773 22.2372 11.3986C22.2372 11.3986 22.4048 10.7778 22.1077 10.1084C22.1077 10.1084 22.7198 8.96306 22.6638 7.97038C22.6638 7.97038 20.6811 8.70581 18.4748 8.48619C18.4748 8.48619 18.5824 8.07581 18.2809 7.84525L18.2192 6.54806L18.2717 6.52312L22.6398 4.452L24.6033 22.5387L19.0781 24.6251L18.6441 15.5089ZM17.8399 7.81156C17.612 8.13662 16.9794 9.13631 17.3639 9.73481C17.3639 9.73481 17.1776 11.0311 16.9177 9.14025C16.9177 9.14025 16.4929 10.2563 15.918 10.0074C15.918 10.0074 15.7601 11.137 15.3982 10.3801C15.3982 10.3801 15.6944 10.5048 15.7596 10.157C15.7596 10.157 14.9244 9.26231 14.4253 10.6151C14.4253 10.6151 14.0175 10.7774 14.1754 11.4117C14.1754 11.4117 14.4616 10.8885 14.6103 11.6852C14.6103 11.6852 14.7683 11.5609 14.8343 10.5411C14.8343 10.5411 15.2307 10.3434 14.9244 11.1493C14.9244 11.1493 15.8327 11.1637 14.4253 11.9691C14.4253 11.9691 14.3474 11.956 14.2861 11.6471C14.2861 11.6471 14.0731 12.3909 13.6364 12.6547C13.6364 12.6547 13.7388 12.9517 13.4151 13.0883C13.4151 13.0883 13.2396 13.5485 13.657 13.5485C13.657 13.5485 14.0179 12.4425 14.7039 13.3127C14.7039 13.3127 14.8348 13.2632 14.6304 12.8279C14.6304 12.8279 14.9909 12.9662 15.1305 13.5363C15.1305 13.5363 15.3532 13.4978 15.3886 13.0021C15.3886 13.0021 15.6682 12.3686 16.1228 13.1145C16.1228 13.1145 15.5194 12.9399 15.3628 13.5485C15.3628 13.5485 15.6481 13.4238 15.8257 13.5984C15.8257 13.5984 15.8436 13.8823 15.6616 13.9921C15.7404 14.14 15.8257 14.2817 15.9447 14.4016C15.9778 14.4325 15.9993 14.4739 16.0055 14.5188C16.0116 14.5637 16.002 14.6093 15.9784 14.6479C16.2995 15.1974 16.8927 15.9289 17.3079 14.7613C17.3079 14.7613 16.7523 15.0767 16.5664 14.2065C16.5664 14.2065 17.6877 14.3491 18.2048 15.4739L18.6401 24.6387L9.91988 22.1931L10.0507 20.8994C10.2318 21.3636 10.444 21.5521 10.444 21.5521C10.1977 19.5331 11.6546 18.2394 11.6546 18.2394C11.9376 16.8534 11.2179 16.2312 10.5507 15.9513L10.8933 12.5615C11.0307 12.3904 11.1116 12.2762 11.1116 12.2762C11.0622 12.1061 11.0141 11.9569 10.9681 11.8204L11.3002 8.53125C11.5793 8.87119 11.6112 9.18006 11.5329 9.46094C11.1737 10.7529 11.6357 11.1488 11.6357 11.1488C11.9162 10.0577 12.8787 9.88356 12.8787 9.88356C12.8236 8.86331 13.4159 7.7035 13.4159 7.7035C12.7715 6.59619 11.8497 7.343 11.3667 7.8715L11.4043 7.50006C11.5032 7.37275 11.6064 7.23406 11.718 7.07569C11.718 7.07569 11.6257 7.01225 11.4581 6.96588L11.7521 4.05431L17.7389 6.53581L17.7809 6.55331L17.8399 7.81156ZM11.0228 6.92125C10.7244 6.93525 10.3425 7.03806 9.89319 7.34869C9.89319 7.34869 9.67969 9.30956 10.9056 8.08062L10.7686 9.43731C10.6085 8.90181 10.2287 8.71544 10.2287 8.71544C9.85687 8.94031 9.89406 9.23781 9.89406 9.23781C10.2314 9.28856 10.4374 9.69456 10.5586 10.0752C10.4904 10.1797 10.3736 10.2992 10.1719 10.3189C10.1719 10.3189 10.4068 10.6719 10.6343 10.7708L10.6094 11.0141C10.08 10.2209 9.85075 11.8147 9.85075 11.8147C8.54219 10.3565 10.1981 9.62675 10.1981 9.62675C9.18444 9.19844 8.715 7.97081 8.715 7.97081C8.66556 8.73338 8.3685 8.69969 8.3685 8.69969C6.04538 7.34169 5.62713 9.52875 5.62713 9.52875C5.99594 10.6873 5.20537 10.8198 5.20537 10.8198C5.971 10.9519 6.36606 9.89188 6.36606 9.89188C7.94894 10.6873 7.1085 13.5367 7.1085 13.5367C7.72581 13.8998 7.89906 15.0938 7.89906 15.0938C8.32912 15.2241 8.76969 15.4875 9.07856 15.6962C9.1385 15.6424 9.20019 15.5912 9.26494 15.5435C8.54306 15.0334 8.54175 14.2074 8.54175 14.2074C9.19669 14.2074 9.89319 13.643 10.3959 13.1241L10.1246 15.8117C10.0025 15.781 9.87882 15.7572 9.75406 15.7404C9.63743 15.7963 9.52787 15.8659 9.42769 15.9478L9.48106 15.9893C8.75306 17.388 9.73744 17.9489 9.90062 18.0298L9.48281 22.1642L3.69206 22.617L5.62362 4.32337L11.319 3.98825L11.0228 6.92125ZM9.85294 22.8563L18.6725 25.3299L18.7119 26.1564L9.74487 23.9251L9.85294 22.8563ZM17.7126 5.13363L17.7459 5.82925L11.8212 3.37356L11.8974 2.61844L17.563 5.06888L17.7126 5.13363ZM4.32644 3.01262L11.4651 2.54231L11.3859 3.32719L5.0295 3.70081L2.95706 23.3332L9.41675 22.827L9.30912 23.8892L1.86594 24.5223L4.32644 3.01262Z" fill="#543110"/>
<path d="M14.0274 16.02C14.0274 16.02 14.9558 16.1937 14.5844 17.9826C14.5844 17.9826 14.7327 19.3769 15.5469 19.2496C15.5469 19.2496 15.7691 17.2376 16.8073 15.6963C16.8073 15.6963 16.3864 16.1154 15.9091 14.7254C15.8369 14.7779 15.7389 14.7902 15.6571 14.7088C15.4515 14.5036 15.3272 14.2451 15.1934 13.9852C15.1744 13.9478 15.1666 13.9057 15.171 13.864C14.4955 13.612 13.1275 13.3591 12.9337 15.3484C12.9341 15.3484 13.1927 16.7178 14.0274 16.02ZM13.6022 11.3729C13.666 12.2689 13.7859 12.541 13.943 12.1687C14.1009 11.7994 13.6022 11.3729 13.6022 11.3729ZM13.3217 12.2186C13.3217 12.2186 13.5829 12.1801 13.5081 11.8515C13.5081 11.8515 13.3217 11.8708 13.3217 12.2186ZM13.2211 10.4174C13.2211 10.4174 12.5627 10.4174 12.7954 10.7538C13.0269 11.0894 13.2211 10.4174 13.2211 10.4174ZM16.5115 18.5798C16.5115 18.5798 16.7128 18.1694 16.7062 17.5368C16.7067 17.5368 16.0662 18.2683 16.5115 18.5798ZM20.6617 16.0082C20.6617 16.0082 20.1979 16.4313 20.2828 16.8167C20.3664 17.2034 20.7732 16.7406 20.6617 16.0082ZM22.5162 17.3763C22.7197 17.0201 21.4019 16.5791 21.4019 16.5791C21.6622 16.965 22.3316 17.6939 22.5162 17.3763ZM21.0423 17.4524C21.3516 16.923 20.106 17.1763 20.106 17.1763C20.106 17.1763 20.922 17.6615 21.0423 17.4524ZM21.5319 17.5626C21.5319 17.5626 21.2825 18.1204 20.3559 18.3554C20.3559 18.3554 20.5514 18.8038 20.3559 19.6495C20.3559 19.6495 21.2912 18.456 21.8302 20.1824C21.8302 20.1824 22.2927 20.4335 22.6169 18.8703C22.6169 18.8703 22.2279 18.3073 22.0984 17.5066C22.0989 17.5062 21.9702 18.5321 21.5319 17.5626ZM21.7147 12.4732C21.7738 12.4238 21.8197 12.4058 21.8197 12.4058C21.366 11.6721 21.5319 12.7296 21.5319 12.7296C21.5612 12.66 21.5957 12.6066 21.6312 12.5616C21.6552 12.8748 21.58 13.3416 21.0909 13.7853C21.0904 13.7853 22.1395 13.3898 21.7147 12.4732ZM13.708 6.98038C13.9369 6.444 13.2176 5.83325 13.2176 5.83325C13.3099 7.12256 13.481 7.51631 13.708 6.98038ZM12.8138 7.05081C12.8138 7.05081 13.1861 6.99569 13.0807 6.52406C13.0807 6.52406 12.8138 6.55075 12.8138 7.05081Z" fill="#543110"/>
</svg>
