<svg width="21" height="21" viewBox="0 0 21 21" fill="none" xmlns="http://www.w3.org/2000/svg">
<path d="M10.5001 19.25V11.375M10.5001 19.25L8.31256 17.5M10.5001 19.25L12.6876 17.5M4.40481 7.97742C3.57724 8.18566 2.8542 8.68893 2.37153 9.39268C1.88886 10.0964 1.67978 10.9522 1.78358 11.7992C1.88737 12.6463 2.2969 13.4262 2.93522 13.9926C3.57353 14.559 4.3967 14.8728 5.25006 14.875H6.12506" stroke="black" stroke-width="2.625" stroke-linecap="round" stroke-linejoin="round"/>
<path d="M13.8513 6.24575C13.5523 5.0615 12.8141 4.03527 11.7864 3.3751C10.7588 2.71492 9.51857 2.4702 8.31718 2.69054C7.11579 2.91087 6.04312 3.57978 5.31663 4.56167C4.59014 5.54355 4.26418 6.76494 4.40483 7.97825C4.40483 7.97825 4.5387 8.75 4.81258 9.1875" stroke="black" stroke-width="2.625" stroke-linecap="round" stroke-linejoin="round"/>
<path d="M14.875 14.875C15.4928 14.8746 16.1035 14.7433 16.6669 14.4899C17.2303 14.2364 17.7336 13.8665 18.1438 13.4045C18.5539 12.9425 18.8616 12.3989 19.0465 11.8095C19.2314 11.22 19.2893 10.5981 19.2166 9.98458C19.1438 9.37109 18.9419 8.77998 18.6242 8.25015C18.3065 7.72031 17.8802 7.26377 17.3733 6.91056C16.8665 6.55736 16.2906 6.3155 15.6835 6.20092C15.0764 6.08633 14.452 6.10161 13.8512 6.24575L12.6875 6.5625" stroke="black" stroke-width="2.625" stroke-linecap="round" stroke-linejoin="round"/>
</svg>
