<svg width="26" height="26" viewBox="0 0 26 26" fill="none" xmlns="http://www.w3.org/2000/svg">
<g clip-path="url(#clip0_40_4032)">
<path fill-rule="evenodd" clip-rule="evenodd" d="M3.24142 1.32263C3.14778 1.32409 3.05612 1.34978 2.97538 1.39722C2.89463 1.44466 2.82756 1.51221 2.7807 1.59329L0.0728 6.28447C0.0253061 6.36684 0.000322013 6.46025 0.000357252 6.55533C0.000392491 6.65041 0.0254458 6.74381 0.0730008 6.82614C0.120556 6.90847 0.188938 6.97684 0.271279 7.02438C0.35362 7.07192 0.447021 7.09695 0.5421 7.09697H5.95894C6.05398 7.09686 6.14731 7.07176 6.22958 7.02419C6.31185 6.97661 6.38016 6.90823 6.42765 6.82591C6.47514 6.7436 6.50015 6.65024 6.50016 6.5552C6.50018 6.46017 6.47519 6.3668 6.42772 6.28447L3.7193 1.59329C3.67095 1.50974 3.60116 1.44062 3.51715 1.39308C3.43313 1.34554 3.33794 1.32131 3.24142 1.32289V1.32263ZM3.25 2.94763L5.01982 6.01329H1.4794L3.25 2.94763ZM10.4 3.76611V5.58611H14.3V3.76611H10.4ZM16.12 3.76611V5.58611H26V3.76611H16.12ZM0.54184 10.3145C0.398135 10.3145 0.260316 10.3716 0.158701 10.4732C0.0570865 10.5748 0 10.7126 0 10.8563L0 15.1895C0 15.3332 0.0570865 15.471 0.158701 15.5726C0.260316 15.6742 0.398135 15.7313 0.54184 15.7313H5.95816C6.02932 15.7313 6.09977 15.7173 6.16551 15.6901C6.23125 15.6628 6.29098 15.6229 6.3413 15.5726C6.39161 15.5223 6.43152 15.4626 6.45876 15.3968C6.48598 15.3311 6.5 15.2606 6.5 15.1895V10.8563C6.5 10.7126 6.44291 10.5748 6.3413 10.4732C6.23968 10.3716 6.10186 10.3145 5.95816 10.3145H0.54184ZM1.08316 11.3982H5.41684V14.6482H1.08316V11.3982ZM10.4 12.4376V14.2576H17.42V12.4376H10.4ZM19.24 12.4376V14.2576H26V12.4376H19.24ZM3.25 18.1774C1.46146 18.1774 0 19.6389 0 21.4274C0 23.2162 1.46146 24.6774 3.25 24.6774C5.03854 24.6774 6.5 23.2162 6.5 21.4274C6.5 19.6389 5.03854 18.1774 3.25 18.1774ZM3.25 19.2606C3.53485 19.2595 3.8171 19.3148 4.08047 19.4233C4.34385 19.5318 4.58314 19.6914 4.78456 19.8928C4.98599 20.0942 5.14555 20.3335 5.25407 20.5969C5.36259 20.8603 5.41791 21.1425 5.41684 21.4274C5.41791 21.7122 5.36259 21.9945 5.25407 22.2579C5.14555 22.5212 4.98599 22.7605 4.78456 22.962C4.58314 23.1634 4.34385 23.3229 4.08047 23.4315C3.8171 23.54 3.53485 23.5953 3.25 23.5942C2.96515 23.5953 2.6829 23.54 2.41953 23.4315C2.15615 23.3229 1.91686 23.1634 1.71544 22.962C1.51401 22.7605 1.35445 22.5212 1.24593 22.2579C1.13741 21.9945 1.08209 21.7122 1.08316 21.4274C1.08213 21.1426 1.13747 20.8603 1.24601 20.597C1.35454 20.3337 1.51411 20.0944 1.71553 19.893C1.91695 19.6916 2.15623 19.5321 2.41959 19.4236C2.68294 19.3151 2.96517 19.2597 3.25 19.2608V19.2606ZM10.4 21.1094V22.9294H14.3V21.1094H10.4ZM16.12 21.1094V22.9294H26V21.1094H16.12Z" fill="#543110"/>
</g>
<defs>
<clipPath id="clip0_40_4032">
<rect width="26" height="26" fill="white"/>
</clipPath>
</defs>
</svg>
