<svg width="21" height="19" viewBox="0 0 21 19" fill="none" xmlns="http://www.w3.org/2000/svg">
<path d="M11.7202 3.88931C11.3196 3.84598 10.9126 3.82115 10.5 3.81497C8.69707 3.82297 6.8281 4.26152 5.05903 5.10185C3.74551 5.75149 2.466 6.66861 1.3548 7.7999C0.809061 8.3774 0.112543 9.21359 0 10.1057C0.0133 10.8786 0.842678 11.8325 1.3548 12.4116C2.3968 13.4985 3.643 14.3893 5.05903 15.1097C5.10715 15.133 5.15545 15.1561 5.20386 15.1789L3.8901 17.4732L5.67518 18.5282L15.325 1.72757L13.6067 0.677429L11.7202 3.88931ZM15.7949 5.0352L14.4836 7.30769C15.0869 8.09138 15.445 9.0578 15.445 10.1057C15.445 12.7177 13.2308 14.8354 10.4987 14.8354C10.3806 14.8354 10.2661 14.8226 10.1501 14.8149L9.28234 16.3171C9.68253 16.3599 10.0872 16.3911 10.5 16.3965C12.3046 16.3884 14.1726 15.9448 15.9397 15.1097C17.2532 14.46 18.534 13.5429 19.6452 12.4116C20.191 11.8341 20.8874 10.9979 21 10.1057C20.9867 9.33292 20.1573 8.37903 19.6452 7.79988C18.6032 6.71303 17.3557 5.82215 15.9397 5.10182C15.8919 5.07865 15.843 5.05781 15.7949 5.0352ZM10.4987 5.37615C10.6185 5.37615 10.7374 5.38094 10.8551 5.38896L9.83863 7.14878C8.41213 7.43798 7.3418 8.65168 7.3418 10.1045C7.3418 10.4694 7.40902 10.8188 7.53278 11.1427C7.53292 11.143 7.53264 11.1436 7.53278 11.144L6.51379 12.9089C5.90914 12.1245 5.55247 11.1549 5.55247 10.1057C5.55249 7.49376 7.76665 5.37613 10.4987 5.37615ZM13.4557 9.08676L11.1652 13.055C12.5841 12.7604 13.6467 11.5522 13.6467 10.1045C13.6467 9.74618 13.5752 9.40554 13.4557 9.08676Z" fill="#288541"/>
</svg>
