<svg width="35" height="35" viewBox="0 0 35 35" fill="none" xmlns="http://www.w3.org/2000/svg">
<path d="M9.00661 29.3571C13.9808 29.3571 18.0132 25.4779 18.0132 20.6925C18.0132 15.9072 13.9808 12.028 9.00661 12.028C4.03239 12.028 0 15.9072 0 20.6925C0 25.4779 4.03239 29.3571 9.00661 29.3571Z" fill="#83BF4F"/>
<path d="M9.00663 19.2673C13.729 19.2673 17.5572 15.5922 17.5572 11.0588C17.5572 6.52531 13.729 2.85022 9.00663 2.85022C4.28428 2.85022 0.456055 6.52531 0.456055 11.0588C0.456055 15.5922 4.28428 19.2673 9.00663 19.2673Z" fill="#83BF4F"/>
<path d="M18.3551 16.9871C23.2349 16.9871 27.1907 13.1844 27.1907 8.49357C27.1907 3.8027 23.2349 0 18.3551 0C13.4754 0 9.51953 3.8027 9.51953 8.49357C9.51953 13.1844 13.4754 16.9871 18.3551 16.9871Z" fill="#83BF4F"/>
<path d="M26.7918 22.2314C30.8846 22.2314 34.2023 19.0412 34.2023 15.1059C34.2023 11.1707 30.8846 7.98047 26.7918 7.98047C22.6991 7.98047 19.3813 11.1707 19.3813 15.1059C19.3813 19.0412 22.6991 22.2314 26.7918 22.2314Z" fill="#83BF4F"/>
<path d="M21.3764 28.9012C25.4691 28.9012 28.7869 25.711 28.7869 21.7757C28.7869 17.8405 25.4691 14.6503 21.3764 14.6503C17.2837 14.6503 13.9659 17.8405 13.9659 21.7757C13.9659 25.711 17.2837 28.9012 21.3764 28.9012Z" fill="#83BF4F"/>
<path d="M15.3341 35C15.5051 32.7199 15.1631 30.3257 14.8211 27.8176C14.479 25.3094 14.023 22.7442 14.023 20.122C13.966 17.4999 14.308 14.8207 15.2201 12.3695C16.0752 9.91836 17.3862 7.69521 18.9253 5.70007C17.6143 7.86622 16.6452 10.2034 16.1322 12.6545C15.6191 15.0487 15.6191 17.5569 15.9611 19.951C16.3032 22.3452 16.9872 24.7394 17.7283 27.1905C18.4123 29.6417 19.1534 32.2069 19.3244 35H15.3341Z" fill="#947151"/>
<path d="M15.049 19.1528C16.1891 19.2668 17.4431 19.2098 18.6402 19.0958C19.8373 18.9818 21.0344 18.6968 22.1745 18.2978C23.3145 17.8987 24.3976 17.3287 25.3667 16.5876C26.3357 15.8466 27.1908 14.9345 27.8178 13.8515C27.2478 14.9345 26.5067 15.9606 25.5377 16.8157C24.6256 17.6707 23.5425 18.2978 22.3455 18.8108C21.2054 19.3238 19.9513 19.6659 18.7542 19.9509C17.5001 20.1789 16.2461 20.3499 14.935 20.2929L15.049 19.1528ZM14.707 18.3548C13.8519 17.8417 13.1108 17.2717 12.4268 16.7017C11.7428 16.0746 11.0587 15.3906 10.4887 14.7065C9.34859 13.2244 8.49354 11.4573 8.37953 9.63318C8.66455 11.4573 9.69062 13.0534 10.9447 14.3075C11.5717 14.9345 12.2558 15.5046 12.9968 16.0176C13.7379 16.5306 14.5359 16.9867 15.277 17.3287L14.707 18.3548M15.619 24.8532C14.6499 24.7962 13.7379 24.6252 12.8258 24.3972C11.9138 24.1692 11.0587 23.8271 10.2036 23.3711C8.55054 22.459 7.12544 21.148 6.27039 19.4948C7.29645 21.0339 8.77855 22.174 10.4317 22.8011C11.2297 23.1431 12.1418 23.3711 12.9968 23.5421C13.8519 23.7131 14.764 23.7701 15.619 23.7131V24.8532" fill="#947151"/>
<path d="M4.44618 22.7447C4.44618 23.9988 3.42011 25.0249 3.42011 25.0249C3.42011 25.0249 2.39404 23.9988 2.39404 22.7447C2.39404 21.4906 3.42011 20.4646 3.42011 20.4646C3.42011 20.4646 4.44618 21.4906 4.44618 22.7447ZM30.839 17.8424C30.839 19.0965 29.8129 20.1226 29.8129 20.1226C29.8129 20.1226 28.7868 19.0965 28.7868 17.8424C28.7868 16.5883 29.8129 15.5622 29.8129 15.5622C29.8129 15.5622 30.839 16.5883 30.839 17.8424ZM7.29637 25.6519C7.29637 26.906 6.2703 27.9321 6.2703 27.9321C6.2703 27.9321 5.24423 26.906 5.24423 25.6519C5.24423 24.3978 6.2703 23.3718 6.2703 23.3718C6.2703 23.3718 7.29637 24.3978 7.29637 25.6519ZM4.44618 10.7739C4.44618 12.028 3.42011 13.0541 3.42011 13.0541C3.42011 13.0541 2.39404 12.028 2.39404 10.7739C2.39404 9.51984 3.42011 8.49377 3.42011 8.49377C3.42011 8.49377 4.44618 9.51984 4.44618 10.7739ZM7.29637 7.4677C7.29637 8.72179 6.2703 9.74785 6.2703 9.74785C6.2703 9.74785 5.24423 8.72179 5.24423 7.4677C5.24423 6.21362 6.2703 5.18755 6.2703 5.18755C6.2703 5.18755 7.29637 6.21362 7.29637 7.4677ZM21.9464 9.12081C21.9464 10.3749 20.9203 11.401 20.9203 11.401C20.9203 11.401 19.9512 10.3749 19.9512 9.12081C19.9512 7.86673 20.9773 6.84066 20.9773 6.84066C20.9773 6.84066 21.9464 7.86673 21.9464 9.12081ZM24.7966 6.0426C24.7966 7.29669 23.7705 8.32276 23.7705 8.32276C23.7705 8.32276 22.7444 7.29669 22.7444 6.0426C22.7444 4.78852 23.7705 3.76245 23.7705 3.76245C23.7705 3.76245 24.7966 4.78852 24.7966 6.0426M11.5147 19.2675C11.5147 20.5216 10.4886 21.5476 10.4886 21.5476C10.4886 21.5476 9.46252 20.5216 9.46252 19.2675C9.46252 18.0134 10.4886 16.9873 10.4886 16.9873C10.4886 16.9873 11.5147 18.0134 11.5147 19.2675ZM8.32244 16.3603C8.32244 17.6144 7.29637 18.6405 7.29637 18.6405C7.29637 18.6405 6.2703 17.6144 6.2703 16.3603C6.2703 15.1062 7.29637 14.0801 7.29637 14.0801C7.29637 14.0801 8.32244 15.1062 8.32244 16.3603ZM13.7378 10.7739C13.7378 12.028 12.7117 13.0541 12.7117 13.0541C12.7117 13.0541 11.6857 12.028 11.6857 10.7739C11.6857 9.51984 12.7117 8.49377 12.7117 8.49377C12.7117 8.49377 13.7378 9.51984 13.7378 10.7739ZM15.961 6.84066C15.961 8.09474 14.9349 9.12081 14.9349 9.12081C14.9349 9.12081 13.9088 8.09474 13.9088 6.84066C13.9088 5.58657 14.9349 4.5605 14.9349 4.5605C14.9349 4.5605 15.961 5.58657 15.961 6.84066ZM19.0392 16.3603C19.0392 17.6144 18.0131 18.6405 18.0131 18.6405C18.0131 18.6405 16.987 17.6144 16.987 16.3603C16.987 15.1062 18.0131 14.0801 18.0131 14.0801C18.0131 14.0801 19.0392 15.1062 19.0392 16.3603M26.7917 21.5476C26.7917 22.8017 25.7656 23.8278 25.7656 23.8278C25.7656 23.8278 24.7395 22.8017 24.7395 21.5476C24.7395 20.2936 25.7656 19.2675 25.7656 19.2675C25.7656 19.2675 26.7917 20.2936 26.7917 21.5476ZM24.7966 12.028C24.7966 13.2821 23.7705 14.3082 23.7705 14.3082C23.7705 14.3082 22.7444 13.2821 22.7444 12.028C22.7444 10.7739 23.7705 9.74785 23.7705 9.74785C23.7705 9.74785 24.7966 10.7739 24.7966 12.028ZM21.3763 23.3718C21.3763 24.6259 20.3503 25.6519 20.3503 25.6519C20.3503 25.6519 19.3242 24.6259 19.3242 23.3718C19.3242 22.1177 20.3503 21.0916 20.3503 21.0916C20.3503 21.0916 21.3763 22.1177 21.3763 23.3718ZM24.0555 25.9369C24.0555 27.191 23.0294 28.2171 23.0294 28.2171C23.0294 28.2171 22.0034 27.191 22.0034 25.9369C22.0034 24.6829 23.0294 23.6568 23.0294 23.6568C23.0294 23.6568 24.0555 24.6829 24.0555 25.9369Z" fill="#75A843"/>
</svg>
