<svg width="29" height="30" viewBox="0 0 29 30" fill="none" xmlns="http://www.w3.org/2000/svg">
<path d="M20.4996 7.89477V1.57898H7.86799V7.89477L0.131151 27.6316C-0.342533 28.8158 0.525888 30 1.78905 30H26.6575C27.9206 30 28.7101 28.7369 28.3154 27.6316L20.4996 7.89477Z" fill="white"/>
<path d="M20.4996 3.15789H7.86801C6.99959 3.15789 6.28906 2.44737 6.28906 1.57895C6.28906 0.710526 6.99959 0 7.86801 0H20.4996C21.368 0 22.0785 0.710526 22.0785 1.57895C22.0785 2.44737 21.368 3.15789 20.4996 3.15789Z" fill="#8BC34A"/>
<path d="M17.3417 19.7368C17.3417 23.2105 14.1838 26.0526 14.1838 26.0526C14.1838 26.0526 11.0259 23.2105 11.0259 19.7368C11.0259 16.2631 14.1838 13.421 14.1838 13.421C14.1838 13.421 17.3417 16.2631 17.3417 19.7368Z" fill="#2E7D32"/>
<path d="M19.7891 21.7894C18.2101 24.9473 14.1838 26.0525 14.1838 26.0525C14.1838 26.0525 12.6049 22.1052 14.1838 19.0262C15.7628 15.9473 19.7891 14.7631 19.7891 14.7631C19.7891 14.7631 21.368 18.6315 19.7891 21.7894Z" fill="#388E3C"/>
<path d="M8.57846 21.7894C10.1574 24.9473 14.1837 26.0525 14.1837 26.0525C14.1837 26.0525 15.7627 22.1052 14.1837 19.0262C12.6048 15.9473 8.57846 14.7631 8.57846 14.7631C8.57846 14.7631 6.99952 18.6315 8.57846 21.7894Z" fill="#43A047"/>
</svg>
