<svg width="31" height="31" viewBox="0 0 31 31" fill="none" xmlns="http://www.w3.org/2000/svg">
<path fill-rule="evenodd" clip-rule="evenodd" d="M2 25.1429V5.85714C2 4.83416 2.40638 3.85309 3.12973 3.12973C3.85309 2.40638 4.83416 2 5.85714 2H25.1429C26.1658 2 27.1469 2.40638 27.8703 3.12973C28.5936 3.85309 29 4.83416 29 5.85714V25.1429C29 26.1658 28.5936 27.1469 27.8703 27.8703C27.1469 28.5936 26.1658 29 25.1429 29H5.85714C4.83416 29 3.85309 28.5936 3.12973 27.8703C2.40638 27.1469 2 26.1658 2 25.1429V25.1429Z" stroke="white" stroke-width="3.49554" stroke-linecap="round" stroke-linejoin="round"/>
<path fill-rule="evenodd" clip-rule="evenodd" d="M5.85714 25.1429V5.85714C5.85714 4.83416 6.26352 3.85309 6.98687 3.12973C7.71023 2.40638 8.69131 2 9.71429 2H5.85714C3.92857 2 2 3.72607 2 5.85714V25.1429C2 27.2739 3.92857 29 5.85714 29H9.71429C8.69131 29 7.71023 28.5936 6.98687 27.8703C6.26352 27.1469 5.85714 26.1658 5.85714 25.1429V25.1429Z" fill="white" stroke="white" stroke-width="3.49554" stroke-linecap="round" stroke-linejoin="round"/>
<path d="M15.5 21.2858L9.71429 15.5001L15.5 9.71436M25.1429 15.5001H9.71429" stroke="white" stroke-width="3.49554" stroke-linecap="round" stroke-linejoin="round"/>
</svg>
