<svg width="61" height="62" viewBox="0 0 61 62" fill="none" xmlns="http://www.w3.org/2000/svg">
<path d="M45.8465 0.0361328H3.81203C2.16068 0.0361328 0.80957 1.38358 0.80957 3.03046V12.0134C0.80957 13.6603 2.16068 15.0077 3.81203 15.0077H45.8465C47.4978 15.0077 48.8489 13.6603 48.8489 12.0134V3.03046C48.8489 1.38358 47.4978 0.0361328 45.8465 0.0361328ZM45.8465 18.0021H3.81203C2.16068 18.0021 0.80957 19.3495 0.80957 20.9964V29.9794C0.80957 31.6262 2.16068 32.9737 3.81203 32.9737H45.8465C47.4978 32.9737 48.8489 31.6262 48.8489 29.9794V20.9964C48.8489 19.3495 47.4978 18.0021 45.8465 18.0021ZM45.8465 35.968H3.81203C2.16068 35.968 0.80957 37.3154 0.80957 38.9623V47.9453C0.80957 49.5922 2.16068 50.9396 3.81203 50.9396H45.8465C47.4978 50.9396 48.8489 49.5922 48.8489 47.9453V38.9623C48.8489 37.3154 47.4978 35.968 45.8465 35.968Z" fill="#D1C4E9"/>
<path d="M45.8473 61.4197C54.1383 61.4197 60.8596 54.7166 60.8596 46.4481C60.8596 38.1795 54.1383 31.4764 45.8473 31.4764C37.5562 31.4764 30.835 38.1795 30.835 46.4481C30.835 54.7166 37.5562 61.4197 45.8473 61.4197Z" fill="#F44336"/>
<path d="M53.818 51.2105L50.6354 54.3874L37.8975 41.6855L41.0816 38.5085L53.818 51.2105Z" fill="white"/>
<path d="M41.0714 54.3981L37.8857 51.2242L50.6222 38.5208L53.8078 41.6962L41.0714 54.3981Z" fill="white"/>
</svg>
