<svg width="20" height="20" viewBox="0 0 20 20" fill="none" xmlns="http://www.w3.org/2000/svg">
<path d="M10 11.2188C10.6731 11.2188 11.2188 10.6731 11.2188 10C11.2188 9.3269 10.6731 8.78125 10 8.78125C9.3269 8.78125 8.78125 9.3269 8.78125 10C8.78125 10.6731 9.3269 11.2188 10 11.2188Z" fill="black"/>
<path d="M10 15.4375C10.6731 15.4375 11.2188 14.8918 11.2188 14.2188C11.2188 13.5457 10.6731 13 10 13C9.3269 13 8.78125 13.5457 8.78125 14.2188C8.78125 14.8918 9.3269 15.4375 10 15.4375Z" fill="black"/>
<path d="M10 7C10.6731 7 11.2188 6.45435 11.2188 5.78125C11.2188 5.10815 10.6731 4.5625 10 4.5625C9.3269 4.5625 8.78125 5.10815 8.78125 5.78125C8.78125 6.45435 9.3269 7 10 7Z" fill="black"/>
<path d="M19 10C19 5.03125 14.9688 1 10 1C5.03125 1 1 5.03125 1 10C1 14.9688 5.03125 19 10 19C14.9688 19 19 14.9688 19 10Z" stroke="black" stroke-width="1.5" stroke-miterlimit="10"/>
</svg>
