<svg width="29" height="29" viewBox="0 0 29 29" fill="none" xmlns="http://www.w3.org/2000/svg">
<path fill-rule="evenodd" clip-rule="evenodd" d="M1 24.1429V4.85714C1 3.83416 1.40638 2.85309 2.12973 2.12973C2.85309 1.40638 3.83416 1 4.85714 1H24.1429C25.1658 1 26.1469 1.40638 26.8703 2.12973C27.5936 2.85309 28 3.83416 28 4.85714V24.1429C28 25.1658 27.5936 26.1469 26.8703 26.8703C26.1469 27.5936 25.1658 28 24.1429 28H4.85714C3.83416 28 2.85309 27.5936 2.12973 26.8703C1.40638 26.1469 1 25.1658 1 24.1429V24.1429Z" stroke="white" stroke-width="1.6875" stroke-linecap="round" stroke-linejoin="round"/>
<path fill-rule="evenodd" clip-rule="evenodd" d="M24.1428 24.1429V4.85714C24.1428 3.83416 23.7364 2.85309 23.0131 2.12973C22.2897 1.40638 21.3086 1 20.2856 1H24.1428C26.0714 1 27.9999 2.72607 27.9999 4.85714V24.1429C27.9999 26.2739 26.0714 28 24.1428 28H20.2856C21.3086 28 22.2897 27.5936 23.0131 26.8703C23.7364 26.1469 24.1428 25.1658 24.1428 24.1429V24.1429Z" fill="white" stroke="white" stroke-width="1.6875" stroke-linecap="round" stroke-linejoin="round"/>
<path d="M14.5 20.2858L20.2857 14.5001L14.5 8.71436M20.2857 14.5001H4.85718" stroke="white" stroke-width="1.6875" stroke-linecap="round" stroke-linejoin="round"/>
</svg>
