<svg width="31" height="30" viewBox="0 0 31 30" fill="none" xmlns="http://www.w3.org/2000/svg">
<path d="M8.49375 10.9859L8.486 10.9786L9.8267 9.36016C9.8516 9.32989 9.8826 9.30454 9.9179 9.28558C9.9532 9.26662 9.99213 9.25442 10.0324 9.24967C10.0728 9.24492 10.1137 9.24771 10.1528 9.2579C10.192 9.26808 10.2287 9.28545 10.2607 9.30901L12.2136 10.7448L14.9454 7.45305C14.9703 7.42278 15.0013 7.39744 15.0366 7.37848C15.0719 7.35952 15.1108 7.34732 15.1512 7.34256C15.1915 7.33781 15.2324 7.34061 15.2716 7.35079C15.3107 7.36097 15.3474 7.37834 15.3794 7.4019L16.848 8.48698C16.8801 8.51046 16.907 8.53968 16.9271 8.57296C16.9472 8.60625 16.9601 8.64295 16.9652 8.68096C16.9702 8.71897 16.9673 8.75755 16.9565 8.79448C16.9457 8.83141 16.9272 8.86596 16.9022 8.89617L14.1705 12.1916L14.1782 12.1952L12.8375 13.8137C12.7329 13.9416 12.5391 13.9635 12.4035 13.8649L10.4506 12.4291L7.96676 15.4249C7.86214 15.5528 7.6684 15.5747 7.53278 15.476L6.0642 14.3946C5.92857 14.296 5.90532 14.1133 6.00995 13.9854L8.49375 10.9859ZM11.7796 0C18.2856 0 23.5593 4.97236 23.5593 11.1065C23.5593 13.6749 22.6332 16.0387 21.0832 17.9202L30.9099 27.1854C30.9676 27.2403 31 27.3145 31 27.3918C31 27.4691 30.9676 27.5433 30.9099 27.5982L29.2709 29.1436C29.1508 29.2569 28.9531 29.2569 28.833 29.1436L19.0063 19.8785C17.0107 21.3398 14.5037 22.213 11.7796 22.213C5.27372 22.213 9.53674e-07 17.2407 9.53674e-07 11.1065C9.53674e-07 4.97236 5.27372 0 11.7796 0ZM5.53334 16.9959C7.19954 18.5705 9.41984 19.4364 11.7796 19.4364C14.1395 19.4364 16.3598 18.5705 18.026 16.9959C19.696 15.4249 20.6144 13.3315 20.6144 11.1065C20.6144 8.88155 19.696 6.78812 18.026 5.21714C16.3598 3.6425 14.1395 2.77663 11.7796 2.77663C9.41984 2.77663 7.19954 3.6425 5.53334 5.21714C3.86326 6.78812 2.94491 8.88155 2.94491 11.1065C2.94491 13.3315 3.86326 15.4249 5.53334 16.9959Z" fill="white"/>
</svg>
