<svg width="16" height="16" viewBox="0 0 16 16" fill="none" xmlns="http://www.w3.org/2000/svg">
<path d="M11.7656 0.234401C11.6914 0.159967 11.6033 0.100937 11.5062 0.0607083C11.4091 0.0204801 11.3051 -0.000151559 11.2 8.38139e-07H4.8C4.69493 -0.000151559 4.59086 0.0204801 4.49379 0.0607083C4.39672 0.100937 4.30857 0.159967 4.2344 0.234401L0.234401 4.2344C0.159967 4.30857 0.100937 4.39672 0.0607083 4.49379C0.0204801 4.59086 -0.000151559 4.69493 8.38139e-07 4.8V11.2C8.38139e-07 11.4128 0.0840008 11.616 0.234401 11.7656L4.2344 15.7656C4.30857 15.84 4.39672 15.8991 4.49379 15.9393C4.59086 15.9795 4.69493 16.0002 4.8 16H11.2C11.4128 16 11.616 15.916 11.7656 15.7656L15.7656 11.7656C15.84 11.6914 15.8991 11.6033 15.9393 11.5062C15.9795 11.4091 16.0002 11.3051 16 11.2V4.8C16.0002 4.69493 15.9795 4.59086 15.9393 4.49379C15.8991 4.39672 15.84 4.30857 15.7656 4.2344L11.7656 0.234401ZM14.4 10.8688L10.8688 14.4H5.1312L1.6 10.8688V5.1312L5.1312 1.6H10.8688L14.4 5.1312V10.8688V10.8688Z" fill="black"/>
</svg>
