<svg width="16" height="17" viewBox="0 0 16 17" fill="none" xmlns="http://www.w3.org/2000/svg">
<path d="M13.6476 2.3538C12.8086 1.50806 11.7901 0.861408 10.6674 0.461586C9.54463 0.061763 8.34634 -0.0810147 7.16098 0.0437961C3.48722 0.413796 0.464138 3.3938 0.0537188 7.0638C-0.496843 11.9138 3.25699 16.0038 7.99182 16.0038C9.50347 16.0038 10.9841 15.5753 12.2617 14.7681C13.5393 13.9609 14.5613 12.8082 15.2092 11.4438C15.5295 10.7738 15.049 10.0038 14.3083 10.0038C13.9379 10.0038 13.5875 10.2038 13.4274 10.5338C12.8462 11.7828 11.8521 12.7938 10.6124 13.3966C9.37271 13.9994 7.963 14.1574 6.62042 13.8438C4.39815 13.3538 2.60633 11.5438 2.13584 9.3238C1.93807 8.44606 1.94036 7.53513 2.14255 6.65839C2.34473 5.78166 2.74163 4.96155 3.30389 4.25872C3.86615 3.55589 4.57938 2.98833 5.39084 2.59801C6.20229 2.2077 7.0912 2.00462 7.99182 2.0038C9.65352 2.0038 11.135 2.6938 12.2161 3.7838L10.7046 5.2938C10.0739 5.9238 10.5144 7.0038 11.4053 7.0038H14.999C15.5495 7.0038 16 6.5538 16 6.0038V2.4138C16 1.5238 14.9189 1.0738 14.2883 1.7038L13.6476 2.3538Z" fill="black"/>
</svg>
